<?xml version="1.0" encoding="iso-8859-1"?>
<!-- Generator: Adobe Illustrator 24.3.0, SVG Export Plug-In . SVG Version: 6.00 Build 0)  -->
<svg version="1.1" xmlns="http://www.w3.org/2000/svg" xmlns:xlink="http://www.w3.org/1999/xlink" x="0px" y="0px"
	 viewBox="0 0 512 512" style="enable-background:new 0 0 512 512;" xml:space="preserve">
<g id="_x34_86_x2C__Physics_x2C__React_x2C__Science">
	<g id="XMLID_3474_">
		<g id="XMLID_3475_">
			<path d="M254.767,328.133c-66.025,0-128.155-9.599-170.461-26.334c-5.126-2.028-7.644-7.822-5.629-12.953
				c0.29-0.738,1.171-2.984,1.171-4.415c0-5.479-4.5-9.937-10.032-9.937c-3.176,0-6.069,1.638-7.938,4.494
				c-1.576,2.407-4.112,4.021-6.961,4.425c-2.847,0.403-5.734-0.438-7.918-2.312C35.878,271.561,30,260.4,30,248.829
				c0-51.51,115.806-79.304,224.767-79.304c71.68,0,137.019,10.874,179.262,29.832c2.474,1.11,4.391,3.178,5.312,5.729
				c0.92,2.55,0.766,5.365-0.429,7.8c-0.196,0.4-0.375,1.242-0.375,1.766c0,2.076,1.575,3.766,3.511,3.766
				c1.126,0,2.119-0.523,2.656-1.399c1.473-2.402,3.892-4.071,6.659-4.597c2.77-0.527,5.63,0.142,7.881,1.837
				c17.155,12.92,20.756,25.931,20.756,34.57c0,23.612-24.208,43.872-70.008,58.591
				C368.429,320.776,313.302,328.133,254.767,328.133z M99.778,286.227c39.743,13.971,95.552,21.906,154.989,21.906
				c56.513,0,109.467-7.016,149.106-19.754c34.62-11.126,56.127-26.28,56.127-39.55c0-4.858-2.989-9.45-6.692-13.276
				c-3.368,1.855-7.219,2.864-11.26,2.864c-12.964,0-23.511-10.661-23.511-23.766c0-0.043,0-0.087,0-0.13
				c-39.549-15.72-99.894-24.996-163.77-24.996C127.9,189.525,50,224.066,50,248.829c0,3.823,1.615,7.387,3.825,10.475
				c4.709-3.099,10.236-4.81,15.991-4.81c16.56,0,30.032,13.43,30.032,29.937C99.848,285.037,99.824,285.637,99.778,286.227z"/>
		</g>
		<g id="XMLID_3476_">
			<path d="M254.302,478.133c-0.085,0-0.17-0.001-0.255-0.003c-23.004-0.586-42.733-25.429-57.053-71.843
				c-13.055-42.312-20.244-98.231-20.244-157.458c0-79.792,13.679-154.385,35.7-194.67c2.595-4.746,8.494-6.57,13.315-4.114
				c0.917,0.467,2.067,0.787,2.489,0.81c1.895-0.001,3.47-1.69,3.47-3.767c0-1.258-0.433-2.148-0.666-2.345
				c-2.237-1.9-3.527-4.688-3.527-7.623s1.29-5.723,3.528-7.623C238.584,23.106,246.34,20,254.767,20
				c23.322,0,43.277,24.571,57.709,71.058c13.096,42.18,20.308,98.21,20.308,157.771c0,91.059-16.251,170.233-42.41,206.628
				c-1.722,2.396-4.414,3.908-7.355,4.134c-2.936,0.228-5.832-0.858-7.9-2.965c-1.077-1.098-2.765-1.753-4.512-1.753
				c-4.53,0-7.237,3.846-7.237,7.563c0,0.69,0.343,2.084,0.645,3.313c0.742,3.026,0.031,6.227-1.923,8.653
				C260.189,476.765,257.324,478.133,254.302,478.133z M226.433,70.773c-18.409,38.93-29.684,105.962-29.684,178.056
				c0,57.282,6.874,111.107,19.355,151.562c9.262,30.02,19.723,46.428,28.609,53.486c3.566-11.021,13.826-19.004,25.893-19.004
				c2.875,0,5.707,0.462,8.38,1.337c20.696-35.957,33.798-107.678,33.798-187.381c0-57.605-6.893-111.53-19.408-151.841
				C280.331,54.971,264.879,40,254.767,40c-1.015,0-2.302,0.103-3.879,0.618c0.548,2.06,0.834,4.234,0.834,6.47
				c0,13.104-10.547,23.766-23.51,23.766C227.612,70.854,227.017,70.826,226.433,70.773z"/>
		</g>
		<g id="XMLID_3477_">
			<path d="M124.434,421.652c-0.03,0-0.055,0-0.084,0c-12.088-0.017-21.709-3.582-28.594-10.597
				c-16.327-16.636-13.296-48.346,8.765-91.702c20.1-39.502,53.882-84.399,95.125-126.421
				C268.002,123.283,342.704,76.48,385.524,76.48c0.003,0-0.002,0,0.001,0c12.155,0,21.817,3.565,28.719,10.598
				c16.312,16.62,13.28,48.27-8.768,91.529c-20.039,39.319-53.813,84.271-95.103,126.573c-0.013,0.014-0.025,0.026-0.039,0.04
				c-33.689,34.138-69.048,63.233-102.252,84.142C184.682,404.098,151.183,421.652,124.434,421.652z M385.525,96.48
				c-37.208,0-107.775,45.423-171.606,110.46c-89.981,91.684-121.153,172.515-103.89,190.105c2.991,3.048,7.818,4.598,14.348,4.606
				c0.02,0,0.042,0,0.062,0c36.874,0,107.436-45.407,171.64-110.459c39.912-40.895,72.433-84.102,91.578-121.668
				c20.03-39.301,19.494-61.122,12.313-68.438C396.971,98.03,392.11,96.48,385.525,96.48z M303.218,298.196h0.01H303.218z"/>
		</g>
		<g id="XMLID_3478_">
			<path d="M385.525,421.652C385.524,421.652,385.525,421.652,385.525,421.652c-42.82,0-117.52-46.798-185.88-116.451
				c-0.006-0.007-0.013-0.014-0.019-0.021c-41.289-42.303-75.063-87.254-95.103-126.573c-22.047-43.259-25.079-74.91-8.768-91.529
				c6.885-7.016,16.505-10.581,28.594-10.598c0.028,0,0.057,0,0.084,0c26.75,0,60.247,17.554,83.648,32.29
				c33.204,20.908,68.562,50.004,102.252,84.142c41.262,42.042,75.045,86.939,95.145,126.441
				c22.062,43.356,25.092,75.066,8.765,91.702C407.344,418.087,397.68,421.652,385.525,421.652z M213.938,291.212
				c63.824,65.024,134.383,110.44,171.586,110.44c6.586,0.001,11.446-1.55,14.446-4.606c17.264-17.59-13.908-98.422-103.89-190.105
				C231.893,141.9,161.319,96.48,124.439,96.48c-0.022,0-0.04,0-0.062,0c-6.529,0.009-11.357,1.559-14.348,4.606
				c-7.181,7.316-7.717,29.138,12.313,68.438C141.491,207.097,174.021,250.312,213.938,291.212L213.938,291.212z"/>
		</g>
		<g id="XMLID_3479_">
			<path d="M228.212,70.854c-12.963,0-23.51-10.662-23.51-23.766s10.547-23.766,23.51-23.766s23.51,10.661,23.51,23.766
				S241.176,70.854,228.212,70.854z M228.212,43.323c-1.936,0-3.51,1.689-3.51,3.766c0,2.077,1.575,3.766,3.51,3.766
				s3.51-1.689,3.51-3.766C231.723,45.012,230.148,43.323,228.212,43.323z"/>
		</g>
		<g id="XMLID_3480_">
			<path d="M442.048,238.417c-12.964,0-23.511-10.661-23.511-23.766s10.547-23.766,23.511-23.766
				c12.963,0,23.51,10.661,23.51,23.766S455.011,238.417,442.048,238.417z M442.048,210.886c-1.936,0-3.511,1.689-3.511,3.766
				s1.575,3.766,3.511,3.766s3.51-1.689,3.51-3.766S443.983,210.886,442.048,210.886z"/>
		</g>
		<g id="XMLID_3481_">
			<path d="M270.606,490c-15.019,0-27.237-12.365-27.237-27.563s12.218-27.563,27.237-27.563c14.764,0,27.237,12.622,27.237,27.563
				S285.37,490,270.606,490z M270.606,454.873c-4.53,0-7.237,3.846-7.237,7.563s2.707,7.563,7.237,7.563
				c3.788,0,7.237-3.605,7.237-7.563S274.395,454.873,270.606,454.873z"/>
		</g>
		<g id="XMLID_3482_">
			<path d="M69.816,314.367c-16.303,0-29.567-13.43-29.567-29.937s13.264-29.937,29.567-29.937c16.56,0,30.032,13.43,30.032,29.937
				S86.376,314.367,69.816,314.367z M69.816,274.494c-5.186,0-9.567,4.551-9.567,9.937s4.381,9.937,9.567,9.937
				c5.532,0,10.032-4.457,10.032-9.937S75.348,274.494,69.816,274.494z"/>
		</g>
		<g id="XMLID_3483_">
			<path d="M254.849,287.531c-20.835,0-37.786-17.324-37.786-38.619c0-20.767,17.304-38.311,37.786-38.311
				c21.001,0,38.087,17.186,38.087,38.311C292.937,270.207,275.851,287.531,254.849,287.531z M254.849,230.602
				c-9.641,0-17.786,8.385-17.786,18.311c0,10.092,8.145,18.619,17.786,18.619c9.804,0,18.087-8.526,18.087-18.619
				C272.937,238.987,264.653,230.602,254.849,230.602z"/>
		</g>
		<g id="XMLID_3484_">
			<path d="M70,440c-2.63,0-5.21-1.07-7.07-2.931c-0.46-0.46-0.88-0.97-1.24-1.52c-0.36-0.54-0.67-1.12-0.92-1.73
				c-0.25-0.6-0.45-1.229-0.57-1.869c-0.13-0.641-0.2-1.301-0.2-1.95c0-0.65,0.07-1.311,0.2-1.95c0.12-0.64,0.32-1.27,0.57-1.88
				c0.25-0.601,0.56-1.18,0.92-1.72c0.36-0.551,0.78-1.061,1.24-1.521s0.97-0.88,1.52-1.24c0.54-0.359,1.12-0.67,1.73-0.92
				c0.6-0.25,1.23-0.45,1.87-0.569c1.29-0.261,2.62-0.261,3.91,0c0.63,0.119,1.26,0.319,1.87,0.569c0.6,0.25,1.18,0.561,1.72,0.92
				c0.55,0.36,1.06,0.78,1.52,1.24s0.88,0.97,1.24,1.521c0.36,0.54,0.67,1.119,0.92,1.72c0.25,0.61,0.45,1.24,0.57,1.88
				c0.13,0.64,0.2,1.3,0.2,1.95c0,0.649-0.07,1.31-0.2,1.95c-0.12,0.64-0.32,1.27-0.57,1.869c-0.25,0.61-0.56,1.19-0.92,1.73
				c-0.36,0.55-0.78,1.06-1.24,1.52C75.21,438.93,72.63,440,70,440z"/>
		</g>
		<g id="XMLID_3485_">
			<path d="M140,460c-2.63,0-5.21-1.07-7.07-2.931c-0.46-0.46-0.88-0.97-1.24-1.52c-0.36-0.54-0.67-1.12-0.92-1.73
				c-0.25-0.6-0.44-1.229-0.57-1.869c-0.13-0.641-0.2-1.301-0.2-1.95c0-0.65,0.07-1.311,0.2-1.95s0.32-1.27,0.57-1.87
				c0.25-0.61,0.56-1.189,0.92-1.729c0.36-0.551,0.78-1.061,1.24-1.521c2.32-2.32,5.78-3.39,9.02-2.74
				c0.64,0.13,1.27,0.33,1.88,0.58c0.6,0.25,1.18,0.55,1.72,0.92c0.55,0.36,1.06,0.78,1.52,1.24s0.88,0.97,1.24,1.521
				c0.37,0.54,0.67,1.119,0.92,1.729c0.25,0.601,0.45,1.23,0.57,1.87c0.13,0.64,0.2,1.3,0.2,1.95c0,0.649-0.07,1.31-0.2,1.95
				c-0.12,0.64-0.32,1.27-0.57,1.869c-0.25,0.61-0.56,1.19-0.92,1.73c-0.36,0.55-0.78,1.06-1.24,1.52
				C145.21,458.93,142.63,460,140,460z"/>
		</g>
		<g id="XMLID_3486_">
			<path d="M140,60c-2.63,0-5.21-1.07-7.07-2.93c-0.46-0.46-0.88-0.97-1.24-1.52c-0.36-0.54-0.67-1.12-0.92-1.72
				c-0.25-0.61-0.45-1.24-0.57-1.88c-0.13-0.64-0.2-1.3-0.2-1.95c0-0.65,0.07-1.31,0.2-1.95c0.12-0.64,0.32-1.27,0.57-1.87
				c0.25-0.61,0.56-1.19,0.92-1.73c0.36-0.55,0.78-1.06,1.24-1.52c2.32-2.32,5.78-3.39,9.02-2.73c0.64,0.12,1.27,0.32,1.87,0.57
				c0.61,0.25,1.19,0.56,1.73,0.92c0.55,0.36,1.06,0.78,1.52,1.24s0.88,0.97,1.24,1.52c0.36,0.54,0.67,1.12,0.92,1.73
				c0.25,0.6,0.45,1.23,0.57,1.87c0.13,0.64,0.2,1.3,0.2,1.95c0,0.65-0.07,1.31-0.2,1.95c-0.12,0.64-0.32,1.27-0.57,1.88
				c-0.25,0.6-0.56,1.18-0.92,1.72c-0.36,0.55-0.78,1.06-1.24,1.52s-0.97,0.88-1.52,1.24c-0.54,0.36-1.12,0.67-1.73,0.92
				c-0.6,0.25-1.23,0.45-1.87,0.57C141.31,59.93,140.65,60,140,60z"/>
		</g>
		<g id="XMLID_3487_">
			<path d="M70,80c-0.65,0-1.31-0.06-1.95-0.19c-0.64-0.13-1.27-0.33-1.87-0.58c-0.61-0.25-1.19-0.56-1.73-0.92
				c-0.55-0.36-1.06-0.78-1.52-1.24C61.07,75.21,60,72.63,60,70c0-0.65,0.07-1.31,0.2-1.95c0.12-0.64,0.32-1.27,0.57-1.87
				c0.25-0.61,0.56-1.19,0.92-1.73c0.36-0.55,0.78-1.06,1.24-1.52s0.97-0.88,1.52-1.24c0.54-0.36,1.12-0.67,1.73-0.92
				c0.6-0.25,1.23-0.45,1.87-0.57c3.25-0.66,6.7,0.41,9.02,2.73c0.46,0.46,0.88,0.97,1.24,1.52c0.36,0.54,0.67,1.12,0.92,1.73
				c0.25,0.6,0.45,1.23,0.58,1.87C79.94,68.69,80,69.35,80,70c0,2.63-1.07,5.21-2.93,7.07S72.63,80,70,80z"/>
		</g>
		<g id="XMLID_3488_">
			<path d="M450,130c-0.65,0-1.311-0.07-1.95-0.2c-0.64-0.12-1.27-0.32-1.87-0.57c-0.61-0.25-1.189-0.56-1.729-0.92
				c-0.551-0.36-1.061-0.78-1.521-1.24s-0.88-0.97-1.25-1.52c-0.36-0.54-0.66-1.12-0.91-1.73c-0.25-0.6-0.45-1.23-0.58-1.87
				c-0.13-0.64-0.189-1.3-0.189-1.95c0-0.65,0.06-1.31,0.189-1.95s0.33-1.27,0.58-1.87c0.25-0.61,0.55-1.19,0.91-1.73
				c0.37-0.55,0.79-1.06,1.25-1.52s0.97-0.88,1.521-1.24c0.54-0.36,1.119-0.67,1.729-0.92c0.601-0.25,1.23-0.45,1.87-0.57
				c1.28-0.26,2.61-0.26,3.9,0c0.64,0.12,1.27,0.32,1.869,0.57c0.61,0.25,1.19,0.56,1.73,0.92c0.55,0.36,1.06,0.78,1.52,1.24
				c0.461,0.46,0.881,0.97,1.24,1.52c0.36,0.54,0.67,1.12,0.92,1.73c0.25,0.6,0.45,1.23,0.57,1.87c0.13,0.64,0.2,1.3,0.2,1.95
				c0,0.65-0.07,1.31-0.2,1.95c-0.12,0.64-0.32,1.27-0.57,1.87c-0.25,0.61-0.56,1.19-0.92,1.73c-0.359,0.55-0.779,1.06-1.24,1.52
				c-0.46,0.46-0.97,0.88-1.52,1.24c-0.54,0.36-1.12,0.67-1.73,0.92c-0.6,0.25-1.229,0.45-1.869,0.57
				C451.31,129.93,450.649,130,450,130z"/>
		</g>
		<g id="XMLID_3489_">
			<path d="M470,380c-0.65,0-1.311-0.061-1.95-0.19s-1.27-0.33-1.87-0.58c-0.61-0.25-1.189-0.55-1.729-0.92
				c-0.551-0.359-1.061-0.779-1.521-1.24c-0.46-0.46-0.88-0.97-1.24-1.52c-0.359-0.54-0.67-1.12-0.92-1.73
				c-0.25-0.6-0.45-1.229-0.569-1.869c-0.131-0.641-0.2-1.301-0.2-1.95c0-0.65,0.069-1.311,0.2-1.95
				c0.119-0.64,0.319-1.27,0.569-1.87c0.25-0.61,0.561-1.189,0.92-1.729c0.36-0.551,0.78-1.061,1.24-1.521s0.97-0.88,1.521-1.24
				c0.54-0.359,1.119-0.67,1.729-0.92c0.601-0.25,1.23-0.45,1.87-0.569c1.29-0.261,2.61-0.261,3.9,0
				c0.64,0.119,1.27,0.319,1.869,0.569c0.61,0.25,1.19,0.561,1.73,0.92c0.55,0.36,1.06,0.78,1.52,1.24
				c0.461,0.46,0.881,0.97,1.24,1.521c0.36,0.54,0.67,1.119,0.92,1.729c0.25,0.601,0.45,1.23,0.57,1.87c0.13,0.64,0.2,1.3,0.2,1.95
				c0,0.649-0.07,1.31-0.2,1.95c-0.12,0.64-0.32,1.27-0.57,1.869c-0.25,0.61-0.56,1.19-0.92,1.73c-0.359,0.55-0.779,1.06-1.24,1.52
				c-0.46,0.461-0.97,0.881-1.52,1.24c-0.54,0.37-1.12,0.67-1.73,0.92c-0.6,0.25-1.229,0.45-1.869,0.58
				C471.31,379.939,470.649,380,470,380z"/>
		</g>
		<g id="XMLID_3490_">
			<path d="M380,460c-0.65,0-1.311-0.07-1.95-0.2c-0.64-0.12-1.27-0.32-1.87-0.57c-0.61-0.25-1.189-0.56-1.729-0.92
				c-0.551-0.359-1.061-0.779-1.521-1.24c-0.46-0.46-0.88-0.97-1.24-1.52c-0.359-0.54-0.67-1.12-0.92-1.73
				c-0.25-0.6-0.45-1.229-0.569-1.869c-0.131-0.641-0.2-1.301-0.2-1.95c0-0.65,0.069-1.311,0.2-1.95
				c0.119-0.64,0.319-1.27,0.569-1.87c0.25-0.61,0.561-1.189,0.92-1.729c0.36-0.551,0.78-1.061,1.24-1.521s0.97-0.88,1.521-1.24
				c0.54-0.359,1.119-0.67,1.729-0.92c0.601-0.25,1.23-0.45,1.87-0.58c1.29-0.25,2.61-0.25,3.9,0c0.64,0.13,1.27,0.33,1.869,0.58
				c0.61,0.25,1.19,0.561,1.73,0.92c0.55,0.36,1.06,0.78,1.52,1.24c0.461,0.46,0.881,0.97,1.24,1.521
				c0.36,0.54,0.67,1.119,0.92,1.729c0.25,0.601,0.45,1.23,0.57,1.87c0.13,0.64,0.2,1.3,0.2,1.95c0,0.649-0.07,1.31-0.2,1.95
				c-0.12,0.64-0.32,1.27-0.57,1.869c-0.25,0.61-0.56,1.19-0.92,1.73c-0.359,0.55-0.779,1.06-1.24,1.52
				c-0.46,0.461-0.97,0.881-1.52,1.24c-0.54,0.36-1.12,0.67-1.73,0.92c-0.6,0.25-1.229,0.45-1.869,0.57
				C381.31,459.93,380.649,460,380,460z"/>
		</g>
		<g id="XMLID_3491_">
			<path d="M450,80c-0.65,0-1.311-0.07-1.95-0.2c-0.64-0.12-1.27-0.32-1.87-0.57c-0.61-0.25-1.189-0.56-1.729-0.92
				c-0.551-0.36-1.061-0.78-1.521-1.24s-0.88-0.97-1.25-1.52c-0.36-0.54-0.66-1.12-0.91-1.73c-0.25-0.6-0.45-1.23-0.58-1.87
				C440.06,71.31,440,70.65,440,70c0-0.65,0.06-1.31,0.189-1.95s0.33-1.27,0.58-1.87c0.25-0.61,0.55-1.19,0.91-1.73
				c0.37-0.55,0.79-1.06,1.25-1.52s0.97-0.88,1.521-1.24c0.54-0.36,1.119-0.67,1.729-0.92c0.601-0.25,1.23-0.45,1.87-0.57
				c1.28-0.26,2.61-0.26,3.9,0c0.64,0.12,1.27,0.32,1.869,0.57c0.61,0.25,1.19,0.56,1.73,0.92c0.55,0.36,1.06,0.78,1.52,1.24
				c0.461,0.46,0.881,0.97,1.24,1.52c0.36,0.54,0.67,1.12,0.92,1.73c0.25,0.6,0.45,1.23,0.57,1.87c0.13,0.64,0.2,1.3,0.2,1.95
				c0,0.65-0.07,1.31-0.2,1.95c-0.12,0.64-0.32,1.27-0.57,1.87c-0.25,0.61-0.56,1.19-0.92,1.73c-0.359,0.55-0.779,1.06-1.24,1.52
				c-0.46,0.46-0.97,0.88-1.52,1.24c-0.54,0.36-1.12,0.67-1.73,0.92c-0.6,0.25-1.229,0.45-1.869,0.57
				C451.31,79.93,450.649,80,450,80z"/>
		</g>
	</g>
</g>
<g id="Layer_1">
</g>
</svg>
